# This file uses centimeters as units for non-parametric coordinates.

v 0.769421 -0.353950 -0.250000
v 0.475529 -0.353950 -0.654509
v 0.250000 -0.353950 -0.769421
v -0.475528 -0.353950 -0.654509
v -0.654509 -0.353950 -0.475528
v -0.809017 -0.353950 0.000000
v -0.250000 -0.353950 0.769421
v 0.000000 -0.353950 0.809017
v 0.475528 -0.353950 0.654509
v 0.769421 -0.353950 0.250000
v 0.000000 -0.766165 0.000000
v 0.000000 1.233835 0.000000
vn 0.382054 -0.881468 -0.277577
vn 0.382054 -0.881468 -0.277577
vn 0.382054 -0.881468 -0.277577
vn 0.208138 -0.888712 -0.408497
vn 0.208138 -0.888712 -0.408497
vn 0.208138 -0.888712 -0.408497
vn -0.077657 -0.868084 -0.490306
vn -0.077657 -0.868084 -0.490306
vn -0.077657 -0.868084 -0.490306
vn -0.324184 -0.888712 -0.324185
vn -0.324184 -0.888712 -0.324185
vn -0.324184 -0.888712 -0.324185
vn -0.449131 -0.881468 -0.145931
vn -0.449131 -0.881468 -0.145931
vn -0.449131 -0.881468 -0.145931
vn -0.431143 -0.846165 0.313244
vn -0.431143 -0.846165 0.313244
vn -0.431143 -0.846165 0.313244
vn -0.071720 -0.888712 0.452822
vn -0.071720 -0.888712 0.452822
vn -0.071720 -0.888712 0.452822
vn 0.145931 -0.881468 0.449131
vn 0.145931 -0.881468 0.449131
vn 0.145931 -0.881468 0.449131
vn 0.382053 -0.881468 0.277578
vn 0.382053 -0.881468 0.277578
vn 0.382053 -0.881468 0.277578
vn 0.472244 -0.881468 0.000000
vn 0.472244 -0.881468 0.000000
vn 0.472244 -0.881468 0.000000
vn 0.728040 0.436084 -0.528950
vn 0.728040 0.436084 -0.528950
vn 0.728040 0.436084 -0.528950
vn 0.405530 0.449537 -0.795903
vn 0.405530 0.449537 -0.795904
vn 0.405530 0.449537 -0.795904
vn -0.142442 0.413384 -0.899346
vn -0.142442 0.413384 -0.899346
vn -0.142442 0.413384 -0.899346
vn -0.631632 0.449536 -0.631632
vn -0.631632 0.449536 -0.631632
vn -0.631632 0.449536 -0.631632
vn -0.855862 0.436083 -0.278086
vn -0.855862 0.436083 -0.278086
vn -0.855862 0.436083 -0.278086
vn -0.747962 0.381106 0.543426
vn -0.747962 0.381106 0.543426
vn -0.747962 0.381106 0.543426
vn -0.139737 0.449536 0.882265
vn -0.139737 0.449536 0.882265
vn -0.139737 0.449536 0.882265
vn 0.278086 0.436084 0.855862
vn 0.278086 0.436084 0.855862
vn 0.278086 0.436084 0.855862
vn 0.728039 0.436083 0.528952
vn 0.728039 0.436083 0.528952
vn 0.728040 0.436083 0.528952
vn 0.899906 0.436083 0.000000
vn 0.899906 0.436083 0.000000
vn 0.899906 0.436083 0.000000
f 2//1 1//2 11//3
f 3//4 2//5 11//6
f 4//7 3//8 11//9
f 5//10 4//11 11//12
f 6//13 5//14 11//15
f 7//16 6//17 11//18
f 8//19 7//20 11//21
f 9//22 8//23 11//24
f 10//25 9//26 11//27
f 1//28 10//29 11//30
f 1//31 2//32 12//33
f 2//34 3//35 12//36
f 3//37 4//38 12//39
f 4//40 5//41 12//42
f 5//43 6//44 12//45
f 6//46 7//47 12//48
f 7//49 8//50 12//51
f 8//52 9//53 12//54
f 9//55 10//56 12//57
f 10//58 1//59 12//60
